<svg width="48" height="48" viewBox="0 0 48 48" fill="none" xmlns="http://www.w3.org/2000/svg">
<path d="M27.2087 12.0486C28.5533 12.3176 29.4274 13.626 29.1585 14.9707L29.0395 15.5603C28.7654 16.9412 28.2585 18.2549 27.55 19.4496H34.9975C36.368 19.4496 37.48 20.5615 37.48 21.9321C37.48 22.8889 36.937 23.7215 36.1405 24.1353C36.7042 24.5904 37.0662 25.2886 37.0662 26.0696C37.0662 27.2798 36.1974 28.2883 35.0544 28.5055C35.282 28.8831 35.4112 29.3227 35.4112 29.7933C35.4112 30.8949 34.6924 31.831 33.6994 32.1517C33.7356 32.3224 33.7563 32.5034 33.7563 32.6896C33.7563 34.0601 32.6443 35.1721 31.2738 35.1721H26.2312C25.2485 35.1721 24.2917 34.8824 23.4746 34.3394L21.4834 33.0102C20.1025 32.0896 19.275 30.5381 19.275 28.8779V26.8971V24.4146V23.1268C19.275 21.6166 19.9629 20.1943 21.1369 19.2479L21.5196 18.9427C22.8901 17.8463 23.8263 16.3051 24.1676 14.588L24.2865 13.9984C24.5555 12.6537 25.864 11.7797 27.2087 12.0486ZM12.655 20.2771H15.965C16.8804 20.2771 17.62 21.0166 17.62 21.9321V33.5171C17.62 34.4325 16.8804 35.1721 15.965 35.1721H12.655C11.7396 35.1721 11 34.4325 11 33.5171V21.9321C11 21.0166 11.7396 20.2771 12.655 20.2771Z" fill="#C51605"/>
<path d="M15.2035 2.74862C20.1793 0.689014 25.72 0.440678 30.8601 2.04689C36.0002 3.65309 40.4137 7.012 43.3315 11.5382C46.2492 16.0645 47.4863 21.471 46.827 26.8157C46.1678 32.1604 43.654 37.1043 39.7238 40.7858C35.7935 44.4674 30.6961 46.6531 25.3198 46.9621C19.9435 47.2711 14.6292 45.6838 10.303 42.4768C5.97689 39.2698 2.91323 34.6465 1.64595 29.4125C0.378671 24.1786 0.988133 18.6659 3.36812 13.8351" stroke="#C51605" stroke-width="2" stroke-linecap="round"/>
<circle cx="8.27578" cy="7.44839" r="1.65517" fill="#C51605"/>
</svg>
