<svg width="49" height="47" viewBox="0 0 49 47" fill="none" xmlns="http://www.w3.org/2000/svg">
<g clip-path="url(#clip0_1320_240)">
<path d="M15.6371 15.8898C16.3203 14.2472 18.6472 14.2472 19.3304 15.8898L22.4326 23.3485C22.7206 24.041 23.3718 24.5141 24.1194 24.574L32.1717 25.2196C33.945 25.3617 34.664 27.5748 33.313 28.7321L27.178 33.9874C26.6084 34.4753 26.3597 35.2408 26.5337 35.9703L28.408 43.828C28.8208 45.5584 26.9383 46.9262 25.4201 45.9988L18.5262 41.7881C17.8862 41.3972 17.0812 41.3972 16.4412 41.7881L9.54734 45.9988C8.02914 46.9262 6.14663 45.5584 6.55941 43.828L8.43374 35.9703C8.60776 35.2408 8.35902 34.4753 7.78944 33.9874L1.65446 28.7321C0.303382 27.5748 1.02243 25.3617 2.79574 25.2196L10.848 24.574C11.5956 24.5141 12.2468 24.041 12.5348 23.3485L15.6371 15.8898Z" fill="#C51605"/>
<rect x="42.1147" width="2.7054" height="21.2102" rx="1.3527" transform="rotate(42.0119 42.1147 0)" fill="#C51605"/>
<rect x="46.9307" y="13.0901" width="2.7054" height="13.6445" rx="1.3527" transform="rotate(50.3737 46.9307 13.0901)" fill="#C51605"/>
<rect x="25.8013" y="1.01489" width="2.66307" height="9.55029" rx="1.33153" transform="rotate(35.988 25.8013 1.01489)" fill="#C51605"/>
</g>
<defs>
<clipPath id="clip0_1320_240">
<rect width="1280" height="9135" fill="white" transform="translate(-1113 -2094)"/>
</clipPath>
</defs>
</svg>
