<svg width="40" height="36" viewBox="0 0 40 36" fill="none" xmlns="http://www.w3.org/2000/svg">
<circle cx="26.1363" cy="9.59091" r="8.59091" fill="#C51605"/>
<path d="M17.5957 23.8292C20.7143 21.3941 32.2763 21.3864 35.4043 23.8292C37.9705 25.8333 39.1189 29.9848 39.6225 32.8787C39.9163 34.5668 38.5657 36 36.8523 36H16.1476C14.4342 36 13.0836 34.5668 13.3774 32.8788C13.881 29.9848 15.0294 25.8332 17.5957 23.8292Z" fill="#C51605"/>
<rect x="3.87305" y="31.4187" width="12.4366" height="4.5813" rx="2.25745" fill="white"/>
<path d="M17.2712 20.6508C17.9506 27.6448 13.0699 29.9251 10.2995 29.9251C7.66772 29.9251 2.75001 28.4456 3.11929 20.6506" stroke="white" stroke-width="4.5" stroke-linecap="round"/>
<rect x="5.70068" y="10.3367" width="8.96191" height="17" rx="4.48096" fill="#C51605"/>
<path d="M17.2712 20.6508C17.9506 27.6448 13.0699 29.9251 10.2995 29.9251C7.66772 29.9251 2.75001 28.4456 3.11929 20.6506" stroke="#C51605" stroke-width="2" stroke-linecap="round"/>
<rect x="9.07568" y="30.7332" width="2.17041" height="1.86987" fill="#C51605"/>
<rect x="5.52051" y="32.603" width="9.14209" height="2.27905" rx="1.13953" fill="#C51605"/>
</svg>
