<svg width="40" height="36" viewBox="0 0 40 36" fill="none" xmlns="http://www.w3.org/2000/svg">
<circle cx="26.1363" cy="8.59091" r="8.59091" fill="#C51605"/>
<path d="M17.5957 22.8292C20.7143 20.3941 32.2763 20.3864 35.4043 22.8292C37.9705 24.8333 39.1189 28.9848 39.6225 31.8787C39.9163 33.5668 38.5657 35 36.8523 35H16.1476C14.4342 35 13.0836 33.5668 13.3774 31.8788C13.881 28.9848 15.0294 24.8332 17.5957 22.8292Z" fill="#C51605"/>
<path d="M10.1818 8.25C7.28217 8.25 4.96901 10.6691 4.96901 13.6023V19.1355C4.86334 18.2044 4.09393 17.4545 3.1157 17.4545C2.06162 17.4545 1.25 18.3252 1.25 19.3551V21.2727C1.25 25.6749 4.2661 29.3753 8.31612 30.2605V30.4943H6.83471C5.78063 30.4943 4.96901 31.365 4.96901 32.3949C4.96901 33.4248 5.78062 34.2955 6.83471 34.2955H10.1818H13.5289C14.583 34.2955 15.3946 33.4248 15.3946 32.3949C15.3946 31.365 14.583 30.4943 13.5289 30.4943H12.0475V30.2605C16.0975 29.3753 19.1136 25.6749 19.1136 21.2727V19.3551C19.1136 18.3252 18.302 17.4545 17.2479 17.4545C16.2697 17.4545 15.5003 18.2044 15.3946 19.1355V13.6023C15.3946 10.6691 13.0815 8.25 10.1818 8.25ZM10.1818 26.6591C8.22552 26.6591 6.5053 25.534 5.61834 23.8595C6.50348 25.5024 8.20658 26.625 10.1818 26.625C12.1571 26.625 13.8602 25.5024 14.7453 23.8595C13.8583 25.534 12.1381 26.6591 10.1818 26.6591Z" fill="#C51605" stroke="white" stroke-width="1.5"/>
</svg>
