<svg width="620" height="403" viewBox="0 0 620 403" fill="none" xmlns="http://www.w3.org/2000/svg">
<path d="M618.586 122.532C618.586 139.266 610.021 155.261 594.419 169.862C578.817 184.464 556.213 197.637 528.239 208.71C472.295 230.856 394.974 244.564 309.543 244.564C224.112 244.564 146.791 230.856 90.8471 208.71C62.8735 197.637 40.2694 184.464 24.6671 169.862C9.06558 155.261 0.5 139.266 0.5 122.532C0.5 105.798 9.06558 89.8033 24.6671 75.202C40.2694 60.6 62.8735 47.427 90.8471 36.3537C146.791 14.2082 224.112 0.5 309.543 0.5C394.974 0.5 472.295 14.2082 528.239 36.3537C556.213 47.427 578.817 60.6 594.419 75.202C610.021 89.8033 618.586 105.798 618.586 122.532Z" stroke="#C51605"/>
<path d="M618.586 192.803C618.586 209.538 610.021 225.532 594.419 240.133C578.817 254.735 556.213 267.908 528.239 278.981C472.295 301.127 394.974 314.835 309.543 314.835C224.112 314.835 146.791 301.127 90.8471 278.981C62.8735 267.908 40.2694 254.735 24.6671 240.133C9.06558 225.532 0.5 209.538 0.5 192.803C0.5 176.069 9.06558 160.075 24.6671 145.473C40.2694 130.871 62.8735 117.698 90.8471 106.625C146.791 84.4795 224.112 70.7712 309.543 70.7712C394.974 70.7712 472.295 84.4795 528.239 106.625C556.213 117.698 578.817 130.871 594.419 145.473C610.021 160.075 618.586 176.069 618.586 192.803Z" stroke="#C51605"/>
<path d="M618.586 280.199C618.586 296.934 610.021 312.928 594.419 327.529C578.817 342.131 556.213 355.304 528.239 366.378C472.295 388.523 394.974 402.231 309.543 402.231C224.112 402.231 146.791 388.523 90.8471 366.378C62.8735 355.304 40.2694 342.131 24.6671 327.529C9.06558 312.928 0.5 296.934 0.5 280.199C0.5 263.465 9.06558 247.471 24.6671 232.869C40.2694 218.267 62.8735 205.094 90.8471 194.021C146.791 171.876 224.112 158.167 309.543 158.167C394.974 158.167 472.295 171.876 528.239 194.021C556.213 205.094 578.817 218.267 594.419 232.869C610.021 247.471 618.586 263.465 618.586 280.199Z" stroke="#C51605"/>
</svg>
