<svg width="74" height="44" viewBox="0 0 74 44" fill="none" xmlns="http://www.w3.org/2000/svg">
<g opacity="0.8">
<mask id="path-1-inside-1_1641_160" fill="white">
<path d="M38.1288 26.3202C39.3725 22.9889 39.6816 19.3809 39.0226 15.8866C38.3637 12.3923 36.7619 9.1447 34.3904 6.4951C32.0189 3.8455 28.9681 1.89479 25.5679 0.853994C22.1678 -0.1868 18.5478 -0.278053 15.0995 0.590106C11.6512 1.45827 8.50595 3.25279 6.00399 5.77954C3.50202 8.30629 1.73858 11.4691 0.904453 14.9257C0.0703219 18.3824 0.19725 22.0013 1.27151 25.3911C2.34576 28.7808 4.32645 31.8123 6.99929 34.1575L7.41535 33.6833C4.82898 31.414 2.91237 28.4806 1.87287 25.2005C0.833363 21.9204 0.710541 18.4186 1.51769 15.0737C2.32483 11.7289 4.03122 8.66841 6.45225 6.2234C8.87327 3.77839 11.9168 2.04193 15.2535 1.20185C18.5902 0.361778 22.0931 0.45008 25.3833 1.4572C28.6734 2.46433 31.6256 4.35193 33.9204 6.91582C36.2151 9.4797 37.7651 12.6223 38.4027 16.0035C39.0403 19.3848 38.7412 22.876 37.5378 26.0995L38.1288 26.3202Z"/>
</mask>
<path d="M38.1288 26.3202C39.3725 22.9889 39.6816 19.3809 39.0226 15.8866C38.3637 12.3923 36.7619 9.1447 34.3904 6.4951C32.0189 3.8455 28.9681 1.89479 25.5679 0.853994C22.1678 -0.1868 18.5478 -0.278053 15.0995 0.590106C11.6512 1.45827 8.50595 3.25279 6.00399 5.77954C3.50202 8.30629 1.73858 11.4691 0.904453 14.9257C0.0703219 18.3824 0.19725 22.0013 1.27151 25.3911C2.34576 28.7808 4.32645 31.8123 6.99929 34.1575L7.41535 33.6833C4.82898 31.414 2.91237 28.4806 1.87287 25.2005C0.833363 21.9204 0.710541 18.4186 1.51769 15.0737C2.32483 11.7289 4.03122 8.66841 6.45225 6.2234C8.87327 3.77839 11.9168 2.04193 15.2535 1.20185C18.5902 0.361778 22.0931 0.45008 25.3833 1.4572C28.6734 2.46433 31.6256 4.35193 33.9204 6.91582C36.2151 9.4797 37.7651 12.6223 38.4027 16.0035C39.0403 19.3848 38.7412 22.876 37.5378 26.0995L38.1288 26.3202Z" fill="#1E1E1E" stroke="#8C0B0B" stroke-width="2" mask="url(#path-1-inside-1_1641_160)"/>
</g>
<mask id="mask0_1641_160" style="mask-type:alpha" maskUnits="userSpaceOnUse" x="8" y="9" width="24" height="19">
<path d="M8.56543 9.91444L30.5653 9.97504L31.0282 23.4764L25.5158 27.9612L20.5296 22.9474L8.52962 22.9144L8.56543 9.91444Z" fill="#D9D9D9"/>
</mask>
<g mask="url(#mask0_1641_160)">
<path opacity="0.6" d="M28.0664 16.6513C29.6099 21.0847 27.2672 25.9299 22.8338 27.4735C18.4004 29.017 13.5551 26.6743 12.0116 22.2409C10.4681 17.8075 12.8108 12.9622 17.2442 11.4187C21.6776 9.87516 26.5229 12.2179 28.0664 16.6513ZM18.7129 19.9078C18.9679 20.6402 19.7683 21.0272 20.5007 20.7722C21.2331 20.5172 21.6201 19.7168 21.3651 18.9844C21.1101 18.252 20.3097 17.865 19.5773 18.12C18.8449 18.375 18.4579 19.1754 18.7129 19.9078Z" fill="#8C0B0B"/>
</g>
<path d="M69.2645 39.6435C69.2645 39.1388 69.2998 38.6863 69.8553 38.5598C70.2642 38.4667 70.7107 38.5407 70.8473 39.0307C71.1426 40.0897 70.5247 40.8543 69.3958 40.8543C68.3267 40.8543 68.2722 39.5362 68.484 38.7765C68.775 37.7329 71.3845 38.0936 72.0217 38.4028C72.6562 38.7108 72.3042 40.5958 71.8247 40.9888C70.9429 41.7117 70.4302 42.0651 69.2645 42.0651C68.8771 42.0651 68.5051 41.5085 68.2652 41.2355C67.752 40.6511 67.689 40.1922 67.689 39.4342C67.689 38.0117 68.1225 37.4515 69.3374 36.8856C70.2185 36.4753 71.8667 36.9706 72.6782 37.3864C73.5597 37.838 73.3346 39.43 73.3346 40.2489C73.3346 41.2036 72.1524 42.2298 71.3652 42.6331C70.3266 43.1652 69.0785 43.0865 68.0172 42.6032C65.8039 41.5953 66.0683 38.4569 67.2951 36.8856C67.9582 36.0362 69.7759 35.9634 70.7087 36.0112C71.6505 36.0594 72.9408 36.6874 72.9408 37.7601" stroke="#F9F9F9" stroke-width="0.8" stroke-linecap="round"/>
<path d="M26.6529 22.24V43H25.3729V37.32C24.5995 39.1333 23.4129 40.56 21.8129 41.6C20.2395 42.6133 18.4395 43.12 16.4129 43.12C14.5195 43.12 12.7995 42.68 11.2529 41.8C9.70618 40.8933 8.47952 39.64 7.57285 38.04C6.69285 36.44 6.25285 34.6267 6.25285 32.6C6.25285 30.5733 6.69285 28.76 7.57285 27.16C8.47952 25.56 9.70618 24.32 11.2529 23.44C12.7995 22.5333 14.5195 22.08 16.4129 22.08C18.4129 22.08 20.1995 22.5867 21.7729 23.6C23.3729 24.6133 24.5595 26.0133 25.3329 27.8V22.24H26.6529ZM16.4529 41.92C18.1329 41.92 19.6395 41.5333 20.9729 40.76C22.3329 39.96 23.3995 38.8533 24.1729 37.44C24.9462 36.0267 25.3329 34.4133 25.3329 32.6C25.3329 30.7867 24.9462 29.1867 24.1729 27.8C23.3995 26.3867 22.3329 25.2933 20.9729 24.52C19.6395 23.72 18.1329 23.32 16.4529 23.32C14.7729 23.32 13.2529 23.72 11.8929 24.52C10.5595 25.2933 9.50619 26.3867 8.73285 27.8C7.95952 29.1867 7.57285 30.7867 7.57285 32.6C7.57285 34.4133 7.95952 36.0267 8.73285 37.44C9.50619 38.8533 10.5595 39.96 11.8929 40.76C13.2529 41.5333 14.7729 41.92 16.4529 41.92ZM36.8069 27.24C37.4202 25.5867 38.4069 24.32 39.7669 23.44C41.1536 22.5333 42.8602 22.08 44.8869 22.08V23.4H44.5269C42.1269 23.4 40.2469 24.16 38.8869 25.68C37.5269 27.2 36.8469 29.2933 36.8469 31.96V43H35.5269V22.24H36.8069V27.24ZM59.8832 41.68C59.4032 42.1333 58.7898 42.4933 58.0432 42.76C57.2965 43 56.5232 43.12 55.7232 43.12C54.0432 43.12 52.7365 42.6533 51.8032 41.72C50.8965 40.76 50.4432 39.4533 50.4432 37.8V17.68H51.7632V22.24H58.6032V23.4H51.7632V37.6C51.7632 39.0133 52.1098 40.0933 52.8032 40.84C53.4965 41.5867 54.5098 41.96 55.8432 41.96C56.4832 41.96 57.0965 41.8533 57.6832 41.64C58.2698 41.4267 58.7765 41.12 59.2032 40.72L59.8832 41.68Z" fill="#F9F9F9"/>
</svg>
