<svg width="74" height="44" viewBox="0 0 74 44" fill="none" xmlns="http://www.w3.org/2000/svg">
<mask id="path-1-inside-1_1592_243" fill="white">
<path d="M37.8972 27.2715C39.2486 23.9824 39.675 20.3864 39.1301 16.8725C38.5853 13.3587 37.09 10.0606 34.806 7.33525C32.522 4.60988 29.5362 2.56091 26.1718 1.41002C22.8073 0.259116 19.1921 0.0501001 15.7174 0.805578C12.2427 1.56106 9.04076 3.25227 6.45788 5.69625C3.87501 8.14024 2.00958 11.244 1.06339 14.6716C0.11721 18.0993 0.126295 21.7205 1.08967 25.1434C2.05304 28.5663 3.93402 31.6606 6.52912 34.0916L6.9604 33.6312C4.44925 31.2789 2.62912 28.2847 1.69691 24.9725C0.764705 21.6603 0.755913 18.1563 1.67149 14.8395C2.58706 11.5227 4.39214 8.51939 6.89146 6.15447C9.39078 3.78955 12.4892 2.15305 15.8515 1.42201C19.2138 0.690975 22.7119 0.893229 25.9676 2.0069C29.2232 3.12056 32.1124 5.10324 34.3225 7.74045C36.5326 10.3777 37.9795 13.569 38.5067 16.9692C39.034 20.3694 38.6214 23.8491 37.3137 27.0317L37.8972 27.2715Z"/>
</mask>
<path d="M37.8972 27.2715C39.2486 23.9824 39.675 20.3864 39.1301 16.8725C38.5853 13.3587 37.09 10.0606 34.806 7.33525C32.522 4.60988 29.5362 2.56091 26.1718 1.41002C22.8073 0.259116 19.1921 0.0501001 15.7174 0.805578C12.2427 1.56106 9.04076 3.25227 6.45788 5.69625C3.87501 8.14024 2.00958 11.244 1.06339 14.6716C0.11721 18.0993 0.126295 21.7205 1.08967 25.1434C2.05304 28.5663 3.93402 31.6606 6.52912 34.0916L6.9604 33.6312C4.44925 31.2789 2.62912 28.2847 1.69691 24.9725C0.764705 21.6603 0.755913 18.1563 1.67149 14.8395C2.58706 11.5227 4.39214 8.51939 6.89146 6.15447C9.39078 3.78955 12.4892 2.15305 15.8515 1.42201C19.2138 0.690975 22.7119 0.893229 25.9676 2.0069C29.2232 3.12056 32.1124 5.10324 34.3225 7.74045C36.5326 10.3777 37.9795 13.569 38.5067 16.9692C39.034 20.3694 38.6214 23.8491 37.3137 27.0317L37.8972 27.2715Z" fill="#1E1E1E" stroke="#8C0B0B" stroke-width="2" mask="url(#path-1-inside-1_1592_243)"/>
<mask id="mask0_1592_243" style="mask-type:alpha" maskUnits="userSpaceOnUse" x="8" y="10" width="23" height="19">
<path d="M8.36035 10.3604L30.3604 10.3604L30.8604 23.8604L25.3604 28.3604L20.3604 23.3604L8.36035 23.3604L8.36035 10.3604Z" fill="#D9D9D9"/>
</mask>
<g mask="url(#mask0_1592_243)">
<path d="M27.8802 17.0435C29.4359 21.4726 27.1066 26.3243 22.6774 27.8801C18.2483 29.4358 13.3966 27.1065 11.8408 22.6773C10.2851 18.2482 12.6145 13.3965 17.0436 11.8407C21.4727 10.285 26.3244 12.6143 27.8802 17.0435ZM18.5357 20.3257C18.7927 21.0574 19.5942 21.4422 20.3258 21.1852C21.0575 20.9282 21.4423 20.1267 21.1853 19.3951C20.9283 18.6634 20.1268 18.2786 19.3952 18.5356C18.6635 18.7926 18.2787 19.5941 18.5357 20.3257Z" fill="#8C0B0B"/>
</g>
<path d="M69.2645 40.0039C69.2645 39.4993 69.2998 39.0467 69.8553 38.9202C70.2642 38.8271 70.7107 38.9011 70.8473 39.3911C71.1426 40.4502 70.5247 41.2147 69.3958 41.2147C68.3267 41.2147 68.2722 39.8966 68.484 39.1369C68.775 38.0933 71.3845 38.454 72.0217 38.7633C72.6562 39.0712 72.3042 40.9562 71.8247 41.3492C70.9429 42.0721 70.4302 42.4255 69.2645 42.4255C68.8771 42.4255 68.5051 41.869 68.2652 41.5959C67.752 41.0115 67.689 40.5527 67.689 39.7947C67.689 38.3721 68.1225 37.8119 69.3374 37.246C70.2185 36.8357 71.8667 37.331 72.6782 37.7468C73.5597 38.1984 73.3346 39.7905 73.3346 40.6093C73.3346 41.564 72.1524 42.5902 71.3652 42.9935C70.3266 43.5256 69.0785 43.4469 68.0172 42.9636C65.8039 41.9557 66.0683 38.8173 67.2951 37.246C67.9582 36.3967 69.7759 36.3238 70.7087 36.3716C71.6505 36.4198 72.9408 37.0478 72.9408 38.1205" stroke="#0E0B0C" stroke-width="0.8" stroke-linecap="round"/>
<path d="M26.6529 22.6004V43.3604H25.3729V37.6804C24.5995 39.4937 23.4129 40.9204 21.8129 41.9604C20.2395 42.9737 18.4395 43.4804 16.4129 43.4804C14.5195 43.4804 12.7995 43.0404 11.2529 42.1604C9.70618 41.2537 8.47952 40.0004 7.57285 38.4004C6.69285 36.8004 6.25285 34.9871 6.25285 32.9604C6.25285 30.9337 6.69285 29.1204 7.57285 27.5204C8.47952 25.9204 9.70618 24.6804 11.2529 23.8004C12.7995 22.8937 14.5195 22.4404 16.4129 22.4404C18.4129 22.4404 20.1995 22.9471 21.7729 23.9604C23.3729 24.9737 24.5595 26.3737 25.3329 28.1604V22.6004H26.6529ZM16.4529 42.2804C18.1329 42.2804 19.6395 41.8937 20.9729 41.1204C22.3329 40.3204 23.3995 39.2137 24.1729 37.8004C24.9462 36.3871 25.3329 34.7737 25.3329 32.9604C25.3329 31.1471 24.9462 29.5471 24.1729 28.1604C23.3995 26.7471 22.3329 25.6537 20.9729 24.8804C19.6395 24.0804 18.1329 23.6804 16.4529 23.6804C14.7729 23.6804 13.2529 24.0804 11.8929 24.8804C10.5595 25.6537 9.50619 26.7471 8.73285 28.1604C7.95952 29.5471 7.57285 31.1471 7.57285 32.9604C7.57285 34.7737 7.95952 36.3871 8.73285 37.8004C9.50619 39.2137 10.5595 40.3204 11.8929 41.1204C13.2529 41.8937 14.7729 42.2804 16.4529 42.2804ZM36.8069 27.6004C37.4202 25.9471 38.4069 24.6804 39.7669 23.8004C41.1536 22.8937 42.8602 22.4404 44.8869 22.4404V23.7604H44.5269C42.1269 23.7604 40.2469 24.5204 38.8869 26.0404C37.5269 27.5604 36.8469 29.6537 36.8469 32.3204V43.3604H35.5269V22.6004H36.8069V27.6004ZM59.8832 42.0404C59.4032 42.4937 58.7898 42.8537 58.0432 43.1204C57.2965 43.3604 56.5232 43.4804 55.7232 43.4804C54.0432 43.4804 52.7365 43.0137 51.8032 42.0804C50.8965 41.1204 50.4432 39.8137 50.4432 38.1604V18.0404H51.7632V22.6004H58.6032V23.7604H51.7632V37.9604C51.7632 39.3737 52.1098 40.4537 52.8032 41.2004C53.4965 41.9471 54.5098 42.3204 55.8432 42.3204C56.4832 42.3204 57.0965 42.2137 57.6832 42.0004C58.2698 41.7871 58.7765 41.4804 59.2032 41.0804L59.8832 42.0404Z" fill="#0E0B0C"/>
</svg>
